<?xml version="1.0" encoding="UTF-8"?>
<svg width="30px" height="30px" viewBox="0 0 30 30" version="1.1" xmlns="http://www.w3.org/2000/svg" xmlns:xlink="http://www.w3.org/1999/xlink">
    <!-- Generator: Sketch 57.1 (83088) - https://sketch.com -->
    <title>add</title>
    <desc>Created with Sketch.</desc>
    <g id="Page-1" stroke="none" stroke-width="1" fill="none" fill-rule="evenodd">
        <g id="add" fill="#000000" fill-rule="nonzero">
            <path d="M15,0 C6.72923077,0 0,6.72865385 0,15 C0,23.2713462 6.72923077,30 15,30 C23.2707692,30 30,23.2713462 30,15 C30,6.72865385 23.2707692,0 15,0 Z M15,28.8461538 C7.36557692,28.8461538 1.15384615,22.6344231 1.15384615,15 C1.15384615,7.36557692 7.36557692,1.15384615 15,1.15384615 C22.6344231,1.15384615 28.8461538,7.36557692 28.8461538,15 C28.8461538,22.6344231 22.6344231,28.8461538 15,28.8461538 Z" id="Shape"></path>
            <path d="M23.3703704,14.5555556 L16.1296296,14.5555556 L16.1296296,7.62962963 C16.1296296,7.28144444 15.8475556,7 15.5,7 C15.1524444,7 14.8703704,7.28144444 14.8703704,7.62962963 L14.8703704,14.5555556 L7.62962963,14.5555556 C7.28207407,14.5555556 7,14.837 7,15.1851852 C7,15.5333704 7.28207407,15.8148148 7.62962963,15.8148148 L14.8703704,15.8148148 L14.8703704,23.3703704 C14.8703704,23.7185556 15.1524444,24 15.5,24 C15.8475556,24 16.1296296,23.7185556 16.1296296,23.3703704 L16.1296296,15.8148148 L23.3703704,15.8148148 C23.7179259,15.8148148 24,15.5333704 24,15.1851852 C24,14.837 23.7179259,14.5555556 23.3703704,14.5555556 Z" id="Path"></path>
        </g>
    </g>
</svg>