<?xml version="1.0" encoding="UTF-8"?>
<svg width="160px" height="46px" viewBox="0 0 160 46" version="1.1" xmlns="http://www.w3.org/2000/svg" xmlns:xlink="http://www.w3.org/1999/xlink">
    <!-- Generator: Sketch 57.1 (83088) - https://sketch.com -->
    <title>Group 2 Copy</title>
    <desc>Created with Sketch.</desc>
    <g id="Page-1" stroke="none" stroke-width="1" fill="none" fill-rule="evenodd">
        <g id="Group-2-Copy" transform="translate(-1.000000, 0.000000)">
            <g id="Group-Copy" transform="translate(0.000000, 6.000000)">
                <text id="CarAdvisor" opacity="0.799246652" font-family="Futura-Bold, Futura" font-size="24" font-weight="bold" letter-spacing="0.666666667">
                    <tspan x="0" y="39" fill="#2F7DAD">Car</tspan>
                    <tspan x="45.992" y="39" fill="#000000">Advisor</tspan>
                </text>
                <g id="sports-car-(1)" transform="translate(106.000000, 0.000000)" fill="#2F7DAD" fill-rule="nonzero">
                    <path d="M8.94828582,2.16597777 C8.90427163,2.10697069 8.838596,2.07252878 8.76969421,2.07252878 L7.89378877,2.07252878 C7.67763531,1.44599007 7.39603667,0.832113817 7.07595441,0.600390727 C5.96868642,-0.200130242 3.03171857,-0.200130242 1.92445058,0.600390727 C1.60413789,0.832367067 1.32369145,1.44700307 1.10638578,2.07252878 L0.230480346,2.07252878 C0.160887228,2.07252878 0.0954420436,2.10697069 0.0518887346,2.16597777 C0.00810498474,2.2247316 -0.00940851519,2.30247913 0.0048788137,2.37718767 L0.134616978,3.0680517 C0.156739293,3.18581261 0.251220017,3.26989137 0.36021851,3.26989137 L0.619694838,3.26989137 C0.3692057,3.58746597 0.247763405,3.98734658 0.246150319,4.38748044 C0.244537234,4.88182303 0.415293858,5.32855476 0.727541127,5.64460986 C0.730997738,5.6479021 0.73445435,5.65018134 0.737680521,5.65347359 L0.737680521,6.62012608 C0.737680521,6.82956324 0.892536731,7 1.0833417,7 L1.89126711,7 C2.08207208,7 2.23692829,6.82956324 2.23692829,6.62012608 L2.23692829,6.23164169 L6.76301582,6.23164169 L6.76301582,6.62012608 C6.76301582,6.82956324 6.91787203,7 7.108677,7 L7.91660241,7 C8.1069465,7 8.26226359,6.82956324 8.26226359,6.62012608 L8.26226359,5.67246728 C8.59363744,5.33893798 8.75195027,4.88005029 8.75402423,4.42192234 C8.75540688,4.00811302 8.628434,3.59354395 8.36319666,3.26938488 L8.63995604,3.26938488 C8.74941542,3.26938488 8.84389614,3.18530612 8.86555758,3.06729195 L8.99552618,2.37668117 C9.00889175,2.30247913 8.99206957,2.2252381 8.94828582,2.16597777 Z M2.30398656,1.23478017 C3.18657478,0.596338739 5.81336933,0.596338739 6.69549667,1.23478017 C6.86694462,1.35836582 7.08747645,1.85802665 7.28957302,2.4698769 L1.71037109,2.4698769 C1.91200678,1.85827989 2.13253861,1.35887232 2.30398656,1.23478017 Z M1.27022918,4.48270217 C1.27022918,4.06990585 1.57487191,3.7356168 1.95025995,3.7356168 C2.32610888,3.7356168 2.63029072,4.06990585 2.63029072,4.48270217 C2.63029072,4.89549849 2.32610888,5.23004079 1.95025995,5.23004079 C1.57487191,5.23004079 1.27022918,4.89549849 1.27022918,4.48270217 Z M7.05867135,5.23004079 C6.68328331,5.23004079 6.37864058,4.89549849 6.37864058,4.48270217 C6.37864058,4.06990585 6.68328331,3.7356168 7.05867135,3.7356168 C7.43452028,3.7356168 7.73870212,4.06990585 7.73870212,4.48270217 C7.73870212,4.89549849 7.4340594,5.23004079 7.05867135,5.23004079 Z" id="Shape"></path>
                </g>
            </g>
            <g id="original" opacity="0.802246094" transform="translate(154.000000, 27.000000)" fill="#000000" fill-rule="nonzero">
                <path d="M3.5,0 C1.57007534,0 0,1.79437997 0,4.00001816 C0,6.20565634 1.57007534,8 3.5,8 C5.42992466,8 7,6.20562003 7,4.00001816 C7,1.79441628 5.42989288,0 3.5,0 Z M3.5,6.89912354 C2.10127088,6.89912354 0.963326071,5.59860929 0.963326071,4.00001816 C0.963326071,2.40142702 2.10127088,1.10091277 3.5,1.10091277 C4.89872912,1.10091277 6.03667393,2.40142702 6.03667393,4.00001816 C6.03667393,5.59860929 4.89872912,6.89912354 3.5,6.89912354 Z M4.77183188,3.47975436 C4.77183188,2.67230697 4.27596678,2.17067071 3.47775962,2.17067071 L2.29520697,2.17067071 L2.29520697,5.82940191 L2.97322077,5.82940191 L2.97322077,4.81000731 L3.47779139,4.81000731 C3.50752996,4.81000731 3.53895243,4.80913584 3.5712963,4.80732029 L4.22373366,5.82940191 L5.06397513,5.82940191 L4.26859568,4.5838988 C4.59330519,4.35223471 4.77183188,3.96094754 4.77183188,3.47975436 Z M3.47775962,4.03516719 L2.97322077,4.03516719 L2.97322077,2.94554714 L3.47779139,2.94554714 C4.09388163,2.94554714 4.09388163,3.34758237 4.09388163,3.47975436 C4.09388163,3.6170825 4.09388163,4.03516719 3.47775962,4.03516719 Z" id="Shape"></path>
            </g>
            <g id="bubble-speech" transform="translate(97.000000, 0.000000)" fill="#030104" fill-rule="nonzero" opacity="0.802455357">
                <path d="M13.5030424,0 C6.04619892,0 0,4.39211754 0,9.80802049 C0,14.0940752 3.78876202,17.7392871 9.06828425,19.0734459 C9.06828425,19.0734459 10.5996094,19.8906879 8.08154297,22.7287059 C7.03192608,23.9087944 12.2353891,20.9077746 13.3458534,20.0626213 C13.7078951,19.7846251 13.8093074,19.717638 14.1459961,19.6339042 C14.4421199,19.5847804 14.6844952,19.5769652 14.8112605,19.5680336 C21.6505033,19.0890762 27,14.9035021 27,9.80802049 C27.0010141,4.39211754 20.9568434,0 13.5030424,0 Z M15.3659856,18.4113905 C15.2676157,18.4180892 15.07189,18.4292538 14.8366136,18.4649802 C14.5617864,18.5330837 14.4806566,18.3410541 14.1906175,18.560995 C13.3032602,19.2375641 10.7324594,21.3699852 9.24879808,21.9337929 C11.2658879,19.6629319 10.2842172,18.0117011 10.2842172,18.0117011 C6.063439,16.9466071 1.81020883,13.838408 1.81020883,10.4075546 C1.56377704,5.27969595 6.87473708,1.26382233 14.3194111,1.57196276 C20.2814378,1.57196276 25.1167745,6.27110428 25.1167745,10.6029335 C25.1177885,14.677979 20.8381911,18.0273315 15.3659856,18.4113905 Z" id="Shape"></path>
            </g>
        </g>
    </g>
</svg>